<svg width="40" height="41" viewBox="0 0 40 41" fill="none" xmlns="http://www.w3.org/2000/svg">
<path d="M0 15.5C0 7.21573 6.71573 0.5 15 0.5H25C33.2843 0.5 40 7.21573 40 15.5V25.5C40 33.7843 33.2843 40.5 25 40.5H15C6.71573 40.5 0 33.7843 0 25.5V15.5Z" fill="url(#paint0_radial_4_1203)"/>
<mask id="mask0_4_1203" style="mask-type:alpha" maskUnits="userSpaceOnUse" x="0" y="0" width="40" height="41">
<circle cx="20" cy="20.5" r="20" fill="#FFDCCC"/>
</mask>
<g mask="url(#mask0_4_1203)">
<path fill-rule="evenodd" clip-rule="evenodd" d="M20.4054 26.4409C20.1319 31.2882 20.5305 37.1962 20.8452 40.202C20.8736 40.4731 20.692 40.7206 20.429 40.7693C20.1659 40.818 19.9106 40.6515 19.8437 40.3875C19.2233 37.9402 18.7363 34.0228 18.7503 30.1603C18.7573 28.2265 18.8899 26.293 19.199 24.5546C19.3935 23.461 19.6602 22.4308 20.0169 21.521C20.1388 21.0238 20.2791 20.5693 20.4407 20.168C20.7422 19.4186 21.1474 18.776 21.7144 18.4218C22.3221 18.0422 23.0192 18.051 23.7409 18.4097C23.9943 18.5356 24.0996 18.8471 23.9761 19.1054C23.8526 19.3638 23.5472 19.4712 23.2938 19.3452C22.8191 19.1093 22.5 19.1516 22.2474 19.3094C22.0329 19.4435 21.8154 19.6927 21.6083 20.0798C21.7015 20.2427 21.7043 20.4518 21.5981 20.622C21.3731 20.9823 21.1707 21.3918 20.9899 21.8436C20.6914 23.0929 20.5047 24.6806 20.4054 26.4409Z" fill="black"/>
<path d="M12.8636 11.5503C10.5874 15.253 16.5937 22.8558 19.8813 26.1944C26.3888 23.2891 27.0492 14.9451 27.4884 11.4166C27.9276 7.88805 15.709 6.92186 12.8636 11.5503Z" fill="#E95454"/>
<g filter="url(#filter0_f_4_1203)">
<mask id="mask1_4_1203" style="mask-type:alpha" maskUnits="userSpaceOnUse" x="13" y="8" width="16" height="19">
<path d="M13.6051 11.6008C11.3361 15.3021 17.3231 22.902 20.6002 26.2394C27.0867 23.3351 27.7451 14.9944 28.1829 11.4672C28.6207 7.93998 16.4413 6.97415 13.6051 11.6008Z" fill="#E95454"/>
</mask>
<g mask="url(#mask1_4_1203)">
<path d="M6.94565 21.7705C8.31058 24.9852 16.6032 26.0245 20.5788 26.1423C21.9348 21.1614 16.5617 16.2444 14.3717 14.0818C12.1817 11.9192 5.23947 17.7522 6.94565 21.7705Z" fill="black" fill-opacity="0.25"/>
</g>
</g>
<path d="M6.10394 21.7837C7.48715 25.027 15.8907 26.0756 19.9196 26.1944C21.2937 21.1691 15.8487 16.2082 13.6294 14.0263C11.4101 11.8444 4.37494 17.7295 6.10394 21.7837Z" fill="#FF7979"/>
</g>
<defs>
<filter id="filter0_f_4_1203" x="9.10413" y="9.61517" width="15.6911" height="20.5271" filterUnits="userSpaceOnUse" color-interpolation-filters="sRGB">
<feFlood flood-opacity="0" result="BackgroundImageFix"/>
<feBlend mode="normal" in="SourceGraphic" in2="BackgroundImageFix" result="shape"/>
<feGaussianBlur stdDeviation="2" result="effect1_foregroundBlur_4_1203"/>
</filter>
<radialGradient id="paint0_radial_4_1203" cx="0" cy="0" r="1" gradientUnits="userSpaceOnUse" gradientTransform="translate(42.5 10.5) rotate(146.104) scale(38.5519)">
<stop stop-color="#FFAB85"/>
<stop offset="1" stop-color="#FFDCCC"/>
</radialGradient>
</defs>
</svg>
